<svg xmlns="http://www.w3.org/2000/svg" viewBox="0 0 48 48" id="sign"><g data-name="Layer 6"><path fill="#4d4d4d" d="M39.36621 42.5H30.39606a2.06514 2.06514 0 00.21039-1.94727 2.23791 2.23791 0 00-1.90137-1.0498 1.85709 1.85709 0 01-1.32227-.54492c-.82519-1.207-3.39453-1.8584-5.39258-1.8584a9.99755 9.99755 0 00-5.8 1.79H15.79v-6.666h2.7959a.49972.49972 0 00.5-.5V26.99219a.49972.49972 0 00-.5-.5H15.79v-7.332H30.46a.50491.50491 0 00.31641-.11231l4.7998-3.91992a.5003.5003 0 00-.001-.77539l-4.79981-3.91016a.50025.50025 0 00-.31543-.1123h-.16821a1.03532 1.03532 0 00.20044-.74219 1.44209 1.44209 0 00-.77539-.96 7.50476 7.50476 0 00-5.665-.459c-.13965.04785-.28516.10253-.4375.16113a5.19007 5.19007 0 01-2.22364.456 4.99166 4.99166 0 01-1.50878-.293.63768.63768 0 00-.20411-.02929 2.15539 2.15539 0 00-1.96191 1.07226 1.94452 1.94452 0 00-.19983.794H15.79V8.54a.49971.49971 0 00-.5-.5H12.48047a.49971.49971 0 00-.5.5v1.79h-1.9502a.49972.49972 0 00-.5.5v7.83008a.49972.49972 0 00.5.5h1.9502v7.332H7.583a.50335.50335 0 00-.33789.13086l-2.583 2.36621a.50134.50134 0 000 .73828l2.583 2.36523a.50335.50335 0 00.33789.13086h4.39746v6.666H9.75a.49971.49971 0 00-.5.5v.10028a7.00122 7.00122 0 00-1.3916-.15009 3.75782 3.75782 0 00-2.98926 1.09961A2.07934 2.07934 0 002.79785 41.21a1.753 1.753 0 00-.27911 1.29H2a.5.5 0 000 1H39.36621a.5.5 0 000-1zM18.60254 9.999a1.17049 1.17049 0 011.02637-.53515 5.98377 5.98377 0 001.72754.32226 6.33318 6.33318 0 002.61523-.52148c.13965-.05371.27344-.10449.40234-.14844 2.26368-.77148 4.94043.15039 5.12891.59082-.03058.13593-.33746.39984-.794.66162-.0075.00312-.01318.00885-.0205.01233a6.00184 6.00184 0 01-1.04487.4657 4.02052 4.02052 0 01-2.28222.05664 13.50453 13.50453 0 00-2.51074-.24219H22.7627a17.92959 17.92959 0 00-2.59864.22949c-.90918.13086-1.38769.18946-1.55176-.03027A.89122.89122 0 0118.60254 9.999zm1.3645 1.92871c.11133-.01513.22394-.03106.34058-.04785a17.04565 17.04565 0 012.46093-.21875 13.56425 13.56425 0 012.42286.22754c.08416.01459.16436.02527.24682.03906zm9.74585 1l2.22461 1.81543-2.22559 1.81836H12.126V12.92773zM12.98047 9.04H14.79v1.29H12.98047zm-2.4502 2.29H17.745a1.45249 1.45249 0 00.06848.13183 1.25367 1.25367 0 00.683.46582H11.626a.49972.49972 0 00-.5.5v4.63379a.49971.49971 0 00.5.5H29.89062a.50494.50494 0 00.31641-.1123l2.83789-2.31836a.50113.50113 0 000-.77539L30.207 12.04a.50489.50489 0 00-.31641-.11231H27.43616a4.67017 4.67017 0 00.5238-.13183 8.11225 8.11225 0 001.072-.46582h1.25031l4.18652 3.41015-4.1875 3.41993h-19.751zm2.4502 7.83008H14.79v7.332H12.98047zM5.74023 29.3584l2.03711-1.86621h10.3086v3.73144H15.30945c-.00684-.0003-.01251-.0039-.01941-.0039s-.01257.0036-.01941.0039H12.49988c-.00684-.0003-.01251-.0039-.01941-.0039s-.01257.0036-.01941.0039H7.77734zm7.24024 2.86523H14.79v6.666H12.98047zM9.75 42.5H3.53906a.84676.84676 0 01.0791-.71875 1.05884 1.05884 0 01.89454-.36719 2.0835 2.0835 0 01.47753.06543.50474.50474 0 00.56446-.26465c.21484-.43554 1.01074-.875 2.30371-.875 1.9375 0 3.583.92969 3.9043 1.79883a.77259.77259 0 01.0498.36133zm5.91016 0H12.80981a1.78147 1.78147 0 00-.10961-.709 3.76994 3.76994 0 00-2.15729-1.90137h6.97662V42.5zm2.85937 0V39.38965a.49257.49257 0 00-.39221-.47827 9.6604 9.6604 0 013.86291-.81177c2.15039 0 4.09668.73535 4.56836 1.4248a2.731 2.731 0 002.03321.97266c.59472.06934.99218.248 1.12011.50293a1.23236 1.23236 0 01-.21386 1.06836l-.09571.16992c-.05468.09668-.10156.18262-.15527.26172zM46 42.5H43a.5.5 0 000 1h3a.5.5 0 000-1z"></path></g></svg>