<svg xmlns="http://www.w3.org/2000/svg" viewBox="0 0 64 64" id="honeymoon"><path d="M54.165 12.675a2.381 2.381 0 1 0-.222-4.758l-.892.041-.041-.892a2.381 2.381 0 1 0-4.758.222l.263 5.65 5.65-.263zm4.834 4.015a1.836 1.836 0 0 0-1.919 1.749l-.032.688-.688-.032a1.836 1.836 0 1 0-.17 3.668l4.355.202.202-4.355a1.835 1.835 0 0 0-1.748-1.92z"></path><circle cx="43.25" cy="9.188" r="1.25"></circle><circle cx="58.25" cy="4.188" r="1.25"></circle><path d="m9.835 12.675 5.65.263.263-5.65a2.382 2.382 0 0 0-4.758-.222l-.041.892-.892-.041a2.38 2.38 0 1 0-.222 4.758zm-.277 8.167a1.836 1.836 0 0 0-1.919-1.749l-.688.032-.031-.687a1.836 1.836 0 1 0-3.668.17l.202 4.355 4.355-.202a1.835 1.835 0 0 0 1.749-1.919z"></path><circle cx="20.75" cy="9.188" r="1.25"></circle><circle cx="5.75" cy="4.188" r="1.25"></circle><path d="M26.75 39.812a2.127 2.127 0 0 0 2.125-2.125v-.75a2.127 2.127 0 0 0-2.125-2.125h-7a2.127 2.127 0 0 0-2.125 2.125v.75c0 1.172.953 2.125 2.125 2.125h7zm17.5 0a2.127 2.127 0 0 0 2.125-2.125v-.75a2.127 2.127 0 0 0-2.125-2.125h-7a2.127 2.127 0 0 0-2.125 2.125v.75c0 1.172.953 2.125 2.125 2.125h7zM7.625 45.896v2.667h48.75v-2.667a4.838 4.838 0 0 0-4.833-4.833H12.458a4.838 4.838 0 0 0-4.833 4.833z"></path><path d="M12.625 29.375v10.438h4.505a3.358 3.358 0 0 1-.755-2.125v-.75a3.379 3.379 0 0 1 3.375-3.375h7a3.379 3.379 0 0 1 3.375 3.375v.75c0 .805-.284 1.544-.755 2.125h5.261a3.358 3.358 0 0 1-.755-2.125v-.75a3.379 3.379 0 0 1 3.375-3.375h7a3.379 3.379 0 0 1 3.375 3.375v.75c0 .805-.284 1.544-.755 2.125h4.505V29.375a4.568 4.568 0 0 0-4.563-4.563h-4.499a.624.624 0 0 1-.505-.993 5.136 5.136 0 0 0-.526-6.69 5.171 5.171 0 0 0-7.305 0l-1.535 1.536a.625.625 0 0 1-.884 0l-1.535-1.536c-.976-.976-2.273-1.513-3.653-1.513s-2.677.537-3.653 1.513a5.136 5.136 0 0 0-.526 6.69.625.625 0 0 1-.505.993h-4.499a4.568 4.568 0 0 0-4.563 4.563zM7 49.812H5.125v11.25h5v-5.625c0-.345.28-.625.625-.625h42.5c.345 0 .625.28.625.625v5.625h5v-11.25H7z"></path></svg>