<svg xmlns="http://www.w3.org/2000/svg" viewBox="0 0 64 64" id="two-separate-beds"><g><path d="M30 46v3a1 1 0 0 1-1 1h-2a1 1 0 0 1-1-1v-3ZM3 41h27v3H3zM7 46v3a1 1 0 0 1-1 1H4a1 1 0 0 1-1-1v-3zm23-17v10H3V29a1 1 0 0 1 1-1h25a1 1 0 0 1 1 1zm-8-7v4H11v-4a1 1 0 0 1 1-1h9a1 1 0 0 1 1 1z"></path><path d="M28 17v9h-4v-4a3 3 0 0 0-3-3h-9a3 3 0 0 0-3 3v4H5v-9a3 3 0 0 1 3-3h17a3 3 0 0 1 3 3zm25 5v4H42v-4a1 1 0 0 1 1-1h9a1 1 0 0 1 1 1z"></path><path d="M59 17v9h-4v-4a3 3 0 0 0-3-3h-9a3 3 0 0 0-3 3v4h-4v-9a3 3 0 0 1 3-3h17a3 3 0 0 1 3 3zm2 12v10H34V29a1 1 0 0 1 1-1h25a1 1 0 0 1 1 1zm0 17v3a1 1 0 0 1-1 1h-2a1 1 0 0 1-1-1v-3zM34 41h27v3H34zM38 46v3a1 1 0 0 1-1 1h-2a1 1 0 0 1-1-1v-3Z"></path></g></svg>